<svg width="17" height="18" viewBox="0 0 17 18" fill="none" xmlns="http://www.w3.org/2000/svg">
<path d="M8.625 9.75H7.875C7.67609 9.75 7.48532 9.82902 7.34467 9.96967C7.20402 10.1103 7.125 10.3011 7.125 10.5C7.125 10.6989 7.20402 10.8897 7.34467 11.0303C7.48532 11.171 7.67609 11.25 7.875 11.25H8.625C8.82391 11.25 9.01468 11.171 9.15533 11.0303C9.29598 10.8897 9.375 10.6989 9.375 10.5C9.375 10.3011 9.29598 10.1103 9.15533 9.96967C9.01468 9.82902 8.82391 9.75 8.625 9.75Z" fill="#6B7280"/>
<path d="M8.625 6.75H7.875C7.67609 6.75 7.48532 6.82902 7.34467 6.96967C7.20402 7.11032 7.125 7.30109 7.125 7.5C7.125 7.69891 7.20402 7.88968 7.34467 8.03033C7.48532 8.17098 7.67609 8.25 7.875 8.25H8.625C8.82391 8.25 9.01468 8.17098 9.15533 8.03033C9.29598 7.88968 9.375 7.69891 9.375 7.5C9.375 7.30109 9.29598 7.11032 9.15533 6.96967C9.01468 6.82902 8.82391 6.75 8.625 6.75Z" fill="#6B7280"/>
<path d="M8.625 3.75H7.875C7.67609 3.75 7.48532 3.82902 7.34467 3.96967C7.20402 4.11032 7.125 4.30109 7.125 4.5C7.125 4.69891 7.20402 4.88968 7.34467 5.03033C7.48532 5.17098 7.67609 5.25 7.875 5.25H8.625C8.82391 5.25 9.01468 5.17098 9.15533 5.03033C9.29598 4.88968 9.375 4.69891 9.375 4.5C9.375 4.30109 9.29598 4.11032 9.15533 3.96967C9.01468 3.82902 8.82391 3.75 8.625 3.75Z" fill="#6B7280"/>
<path d="M5.625 9.75H4.875C4.67609 9.75 4.48532 9.82902 4.34467 9.96967C4.20402 10.1103 4.125 10.3011 4.125 10.5C4.125 10.6989 4.20402 10.8897 4.34467 11.0303C4.48532 11.171 4.67609 11.25 4.875 11.25H5.625C5.82391 11.25 6.01468 11.171 6.15533 11.0303C6.29598 10.8897 6.375 10.6989 6.375 10.5C6.375 10.3011 6.29598 10.1103 6.15533 9.96967C6.01468 9.82902 5.82391 9.75 5.625 9.75Z" fill="#6B7280"/>
<path d="M5.625 6.75H4.875C4.67609 6.75 4.48532 6.82902 4.34467 6.96967C4.20402 7.11032 4.125 7.30109 4.125 7.5C4.125 7.69891 4.20402 7.88968 4.34467 8.03033C4.48532 8.17098 4.67609 8.25 4.875 8.25H5.625C5.82391 8.25 6.01468 8.17098 6.15533 8.03033C6.29598 7.88968 6.375 7.69891 6.375 7.5C6.375 7.30109 6.29598 7.11032 6.15533 6.96967C6.01468 6.82902 5.82391 6.75 5.625 6.75Z" fill="#6B7280"/>
<path d="M5.625 3.75H4.875C4.67609 3.75 4.48532 3.82902 4.34467 3.96967C4.20402 4.11032 4.125 4.30109 4.125 4.5C4.125 4.69891 4.20402 4.88968 4.34467 5.03033C4.48532 5.17098 4.67609 5.25 4.875 5.25H5.625C5.82391 5.25 6.01468 5.17098 6.15533 5.03033C6.29598 4.88968 6.375 4.69891 6.375 4.5C6.375 4.30109 6.29598 4.11032 6.15533 3.96967C6.01468 3.82902 5.82391 3.75 5.625 3.75Z" fill="#6B7280"/>
<path d="M11.625 9.75H10.875C10.6761 9.75 10.4853 9.82902 10.3447 9.96967C10.204 10.1103 10.125 10.3011 10.125 10.5C10.125 10.6989 10.204 10.8897 10.3447 11.0303C10.4853 11.171 10.6761 11.25 10.875 11.25H11.625C11.8239 11.25 12.0147 11.171 12.1553 11.0303C12.296 10.8897 12.375 10.6989 12.375 10.5C12.375 10.3011 12.296 10.1103 12.1553 9.96967C12.0147 9.82902 11.8239 9.75 11.625 9.75Z" fill="#6B7280"/>
<path d="M11.625 6.75H10.875C10.6761 6.75 10.4853 6.82902 10.3447 6.96967C10.204 7.11032 10.125 7.30109 10.125 7.5C10.125 7.69891 10.204 7.88968 10.3447 8.03033C10.4853 8.17098 10.6761 8.25 10.875 8.25H11.625C11.8239 8.25 12.0147 8.17098 12.1553 8.03033C12.296 7.88968 12.375 7.69891 12.375 7.5C12.375 7.30109 12.296 7.11032 12.1553 6.96967C12.0147 6.82902 11.8239 6.75 11.625 6.75Z" fill="#6B7280"/>
<path d="M11.625 3.75H10.875C10.6761 3.75 10.4853 3.82902 10.3447 3.96967C10.204 4.11032 10.125 4.30109 10.125 4.5C10.125 4.69891 10.204 4.88968 10.3447 5.03033C10.4853 5.17098 10.6761 5.25 10.875 5.25H11.625C11.8239 5.25 12.0147 5.17098 12.1553 5.03033C12.296 4.88968 12.375 4.69891 12.375 4.5C12.375 4.30109 12.296 4.11032 12.1553 3.96967C12.0147 3.82902 11.8239 3.75 11.625 3.75Z" fill="#6B7280"/>
<path d="M15.75 15.75H15V1.5C15 1.30109 14.921 1.11032 14.7803 0.96967C14.6397 0.829018 14.4489 0.75 14.25 0.75H2.25C2.05109 0.75 1.86032 0.829018 1.71967 0.96967C1.57902 1.11032 1.5 1.30109 1.5 1.5V15.75H0.75C0.551088 15.75 0.360322 15.829 0.21967 15.9697C0.0790176 16.1103 0 16.3011 0 16.5C0 16.6989 0.0790176 16.8897 0.21967 17.0303C0.360322 17.171 0.551088 17.25 0.75 17.25H15.75C15.9489 17.25 16.1397 17.171 16.2803 17.0303C16.421 16.8897 16.5 16.6989 16.5 16.5C16.5 16.3011 16.421 16.1103 16.2803 15.9697C16.1397 15.829 15.9489 15.75 15.75 15.75ZM6.75 15.75V14.25H9.75V15.75H6.75ZM11.25 15.75V13.5C11.25 13.3011 11.171 13.1103 11.0303 12.9697C10.8897 12.829 10.6989 12.75 10.5 12.75H6C5.80109 12.75 5.61032 12.829 5.46967 12.9697C5.32902 13.1103 5.25 13.3011 5.25 13.5V15.75H3V2.25H13.5V15.75H11.25Z" fill="#6B7280"/>
</svg>
