<svg width="38" height="49" viewBox="0 0 38 49" fill="none" xmlns="http://www.w3.org/2000/svg">
<mask id="path-1-outside-1_368_18" maskUnits="userSpaceOnUse" x="0" y="0" width="38" height="49" fill="black">
<rect fill="white" width="38" height="49"/>
<path fill-rule="evenodd" clip-rule="evenodd" d="M29.862 33.8426C34.1987 30.5064 37 25.221 37 19.2715C37 9.18045 28.9411 1 19 1C9.05887 1 1 9.18045 1 19.2715C1 24.6653 3.30242 29.5132 6.96402 32.8578L18.5421 46.9999L29.862 33.8426Z"/>
</mask>
<path fill-rule="evenodd" clip-rule="evenodd" d="M29.862 33.8426C34.1987 30.5064 37 25.221 37 19.2715C37 9.18045 28.9411 1 19 1C9.05887 1 1 9.18045 1 19.2715C1 24.6653 3.30242 29.5132 6.96402 32.8578L18.5421 46.9999L29.862 33.8426Z" fill="#5D9D8A"/>
<path d="M29.862 33.8426L29.2523 33.05L29.1709 33.1126L29.104 33.1904L29.862 33.8426ZM6.96402 32.8578L7.73779 32.2243L7.69191 32.1683L7.63844 32.1195L6.96402 32.8578ZM18.5421 46.9999L17.7683 47.6334L18.5231 48.5553L19.3001 47.6521L18.5421 46.9999ZM36 19.2715C36 24.9009 33.3507 29.8971 29.2523 33.05L30.4718 34.6352C35.0468 31.1156 38 25.5412 38 19.2715H36ZM19 2C28.3748 2 36 9.71857 36 19.2715H38C38 8.64234 29.5075 0 19 0V2ZM2 19.2715C2 9.71857 9.62522 2 19 2V0C8.49253 0 0 8.64234 0 19.2715H2ZM7.63844 32.1195C4.17749 28.9582 2 24.3754 2 19.2715H0C0 24.9553 2.42734 30.0683 6.2896 33.5962L7.63844 32.1195ZM19.3159 46.3664L7.73779 32.2243L6.19026 33.4913L17.7683 47.6334L19.3159 46.3664ZM29.104 33.1904L17.784 46.3477L19.3001 47.6521L30.6201 34.4948L29.104 33.1904Z" fill="#F3F4F6" mask="url(#path-1-outside-1_368_18)"/>
<g clip-path="url(#clip0_368_18)">
<path d="M10.6365 25.8182H16.3865V27.125C16.3865 27.8875 16.0836 28.6188 15.5444 29.158C15.0053 29.6971 14.274 30 13.5115 30C12.749 30 12.0177 29.6971 11.4786 29.158C10.9394 28.6188 10.6365 27.8875 10.6365 27.125V25.8182ZM14.879 21.6364L14.926 21.4984C15.7279 19.2967 15.8638 18.8868 15.8638 18.5C15.8638 17.7159 15.6515 16.7823 15.3118 16.1237C15.0588 15.6323 14.881 15.4891 14.8183 15.4891C13.4801 15.4891 12.2047 16.9151 12.2047 18.5C12.2047 19.5026 12.2831 20.3536 12.442 21.3834L12.4817 21.6364H14.879ZM14.8183 13.3982C16.9092 13.3982 17.9547 16.4091 17.9547 18.5C17.9547 19.5455 17.432 20.5909 16.9092 22.1591L16.3865 23.7273H10.6365C10.6365 22.6818 10.1138 21.1137 10.1138 18.5C10.1138 15.8864 12.2026 13.3982 14.8183 13.3982ZM27.4202 21.7388L27.1934 23.0258C27.061 23.7768 26.6357 24.4444 26.011 24.8818C25.3864 25.3192 24.6135 25.4906 23.8625 25.3582C23.1116 25.2258 22.4439 24.8005 22.0065 24.1759C21.5691 23.5512 21.3977 22.7784 21.5301 22.0274L21.758 20.7415L27.4202 21.7388ZM26.3225 17.2998C26.495 16.7771 26.6372 16.3642 26.6393 16.3589C26.8505 15.671 27.0167 14.9967 27.1463 14.2597C27.4213 12.6998 26.4124 11.0742 25.0951 10.841C25.0335 10.8306 24.8338 10.9403 24.4992 11.3794C24.0497 11.9701 23.6796 12.8535 23.5426 13.624C23.482 13.969 23.4914 14.0474 23.8249 15.9899C23.872 16.2575 23.9106 16.498 23.9462 16.7395L23.9671 16.8838L26.3225 17.2998ZM25.459 8.78253C28.035 9.23625 29.6596 12.0485 29.2059 14.6224C28.7521 17.1974 27.9649 18.6506 27.784 19.6803L22.1208 18.6819L21.8783 17.0468C21.6357 15.4118 21.3033 14.291 21.4841 13.2623C21.8469 11.2028 23.3994 8.41975 25.459 8.78253Z" fill="#F3F4F6"/>
</g>
<defs>
<clipPath id="clip0_368_18">
<rect width="23" height="23" fill="white" transform="translate(7.5 7)"/>
</clipPath>
</defs>
</svg>
