<svg width="16" height="16" viewBox="0 0 16 16" fill="none" xmlns="http://www.w3.org/2000/svg">
<path d="M14.2222 3.03111L5.06667 12.1867C4.98631 12.2791 4.88771 12.3539 4.77707 12.4065C4.66642 12.459 4.54611 12.4881 4.42369 12.4919C4.30126 12.4958 4.17937 12.4743 4.06565 12.4288C3.95193 12.3833 3.84884 12.3148 3.76284 12.2276C3.67685 12.1403 3.60981 12.0363 3.56593 11.9219C3.52205 11.8076 3.50228 11.6854 3.50786 11.563C3.51343 11.4407 3.54423 11.3208 3.59833 11.2109C3.65243 11.101 3.72865 11.0035 3.82222 10.9244L12.96 1.77778H9.77778C9.54203 1.77778 9.31594 1.68413 9.14924 1.51743C8.98254 1.35073 8.88889 1.12464 8.88889 0.888889C8.88889 0.653141 8.98254 0.427048 9.14924 0.260349C9.31594 0.0936505 9.54203 0 9.77778 0H15.1111C15.3469 0 15.573 0.0936505 15.7397 0.260349C15.9064 0.427048 16 0.653141 16 0.888889V6.22222C16 6.45797 15.9064 6.68406 15.7397 6.85076C15.573 7.01746 15.3469 7.11111 15.1111 7.11111C14.8754 7.11111 14.6493 7.01746 14.4826 6.85076C14.3159 6.68406 14.2222 6.45797 14.2222 6.22222V3.03111ZM12.4444 9.77778C12.4444 9.54203 12.5381 9.31594 12.7048 9.14924C12.8715 8.98254 13.0976 8.88889 13.3333 8.88889C13.5691 8.88889 13.7952 8.98254 13.9619 9.14924C14.1286 9.31594 14.2222 9.54203 14.2222 9.77778V14.2222C14.2222 14.6937 14.0349 15.1459 13.7015 15.4793C13.3681 15.8127 12.9159 16 12.4444 16H1.77778C1.30628 16 0.854097 15.8127 0.520699 15.4793C0.187301 15.1459 0 14.6937 0 14.2222V3.55556C0 2.57778 0.8 1.77778 1.77778 1.77778H6.22222C6.45797 1.77778 6.68406 1.87143 6.85076 2.03813C7.01746 2.20483 7.11111 2.43092 7.11111 2.66667C7.11111 2.90241 7.01746 3.12851 6.85076 3.29521C6.68406 3.4619 6.45797 3.55556 6.22222 3.55556H1.77778V14.2222H12.4444V9.77778Z" fill="#6B7280"/>
</svg>
