<svg width="20" height="21" viewBox="0 0 20 21" fill="none" xmlns="http://www.w3.org/2000/svg">
<path d="M11.755 5.4275C11.9863 5.54309 12.2414 5.60327 12.5 5.60327C12.7586 5.60327 13.0137 5.54309 13.245 5.4275L16.2942 3.9025C16.4213 3.83896 16.5626 3.809 16.7046 3.81547C16.8466 3.82194 16.9845 3.86461 17.1054 3.93944C17.2262 4.01427 17.3259 4.11876 17.395 4.24298C17.4641 4.3672 17.5002 4.50703 17.5 4.64916V15.2858C17.4999 15.4405 17.4568 15.5922 17.3754 15.7238C17.294 15.8553 17.1776 15.9617 17.0392 16.0308L13.245 17.9283C13.0137 18.0439 12.7586 18.1041 12.5 18.1041C12.2414 18.1041 11.9863 18.0439 11.755 17.9283L8.245 16.1733C8.01367 16.0577 7.75861 15.9976 7.5 15.9976C7.24139 15.9976 6.98634 16.0577 6.755 16.1733L3.70584 17.6983C3.57863 17.7619 3.43727 17.7919 3.29522 17.7853C3.15316 17.7788 3.01513 17.7361 2.89427 17.6612C2.7734 17.5862 2.67372 17.4816 2.60471 17.3573C2.5357 17.233 2.49965 17.093 2.5 16.9508V6.315C2.50009 6.16028 2.54324 6.00864 2.62463 5.87706C2.70602 5.74548 2.82244 5.63915 2.96084 5.57L6.755 3.6725C6.98634 3.5569 7.24139 3.49672 7.5 3.49672C7.75861 3.49672 8.01367 3.5569 8.245 3.6725L11.755 5.4275Z" stroke="#6B7280" stroke-width="1.66667" stroke-linecap="round" stroke-linejoin="round"/>
<path d="M12.5 5.60333V18.1033" stroke="#6B7280" stroke-width="1.66667" stroke-linecap="round" stroke-linejoin="round"/>
<path d="M7.5 3.49667V15.9967" stroke="#6B7280" stroke-width="1.66667" stroke-linecap="round" stroke-linejoin="round"/>
</svg>
