<svg width="38" height="49" viewBox="0 0 38 49" fill="none" xmlns="http://www.w3.org/2000/svg">
<mask id="path-1-outside-1_466_11" maskUnits="userSpaceOnUse" x="0" y="0" width="38" height="49" fill="black">
<rect fill="white" width="38" height="49"/>
<path d="M19 1C28.9411 1 37 9.18042 37 19.2715C37 25.2195 34.1991 30.5025 29.8643 33.8389L18.542 47L6.95898 32.8525C3.3005 29.5081 1 24.6626 1 19.2715C1.00003 9.18042 9.0589 1 19 1Z"/>
</mask>
<path d="M19 1C28.9411 1 37 9.18042 37 19.2715C37 25.2195 34.1991 30.5025 29.8643 33.8389L18.542 47L6.95898 32.8525C3.3005 29.5081 1 24.6626 1 19.2715C1.00003 9.18042 9.0589 1 19 1Z" fill="#00B493"/>
<path d="M37 19.2715L38 19.2715L38 19.2715L37 19.2715ZM29.8643 33.8389L29.2543 33.0464L29.1731 33.109L29.1062 33.1867L29.8643 33.8389ZM18.542 47L17.7682 47.6335L18.523 48.5554L19.3001 47.6522L18.542 47ZM6.95898 32.8525L7.73273 32.219L7.68699 32.1632L7.6337 32.1145L6.95898 32.8525ZM1 19.2715L0 19.2715V19.2715H1ZM19 1V2C28.3748 2 36 9.71853 36 19.2715L37 19.2715L38 19.2715C38 8.6423 29.5075 0 19 0V1ZM37 19.2715H36C36 24.8992 33.3512 29.8932 29.2543 33.0464L29.8643 33.8389L30.4742 34.6313C35.0471 31.1117 38 25.5397 38 19.2715H37ZM29.8643 33.8389L29.1062 33.1867L17.7839 46.3478L18.542 47L19.3001 47.6522L30.6223 34.491L29.8643 33.8389ZM18.542 47L19.3157 46.3665L7.73273 32.219L6.95898 32.8525L6.18524 33.486L17.7682 47.6335L18.542 47ZM6.95898 32.8525L7.6337 32.1145C4.17565 28.9533 2 24.3728 2 19.2715H1H0C0 24.9525 2.42535 30.063 6.28427 33.5906L6.95898 32.8525ZM1 19.2715L2 19.2715C2.00003 9.71853 9.62524 2 19 2V1V0C8.49255 0 3.63678e-05 8.6423 0 19.2715L1 19.2715Z" fill="#F3F4F6" mask="url(#path-1-outside-1_466_11)"/>
<g clip-path="url(#clip0_466_11)">
<path d="M10.6365 25.8182H16.3865V27.125C16.3865 27.8875 16.0836 28.6188 15.5444 29.158C15.0053 29.6971 14.274 30 13.5115 30C12.749 30 12.0177 29.6971 11.4786 29.158C10.9394 28.6188 10.6365 27.8875 10.6365 27.125V25.8182ZM14.879 21.6364L14.926 21.4984C15.7279 19.2967 15.8638 18.8868 15.8638 18.5C15.8638 17.7159 15.6515 16.7823 15.3118 16.1237C15.0588 15.6323 14.881 15.4891 14.8183 15.4891C13.4801 15.4891 12.2047 16.9151 12.2047 18.5C12.2047 19.5026 12.2831 20.3536 12.442 21.3834L12.4817 21.6364H14.879ZM14.8183 13.3982C16.9092 13.3982 17.9547 16.4091 17.9547 18.5C17.9547 19.5455 17.432 20.5909 16.9092 22.1591L16.3865 23.7273H10.6365C10.6365 22.6818 10.1138 21.1137 10.1138 18.5C10.1138 15.8864 12.2026 13.3982 14.8183 13.3982ZM27.4202 21.7388L27.1934 23.0258C27.061 23.7768 26.6357 24.4444 26.011 24.8818C25.3864 25.3192 24.6135 25.4906 23.8625 25.3582C23.1116 25.2258 22.4439 24.8005 22.0065 24.1759C21.5691 23.5512 21.3977 22.7784 21.5301 22.0274L21.758 20.7415L27.4202 21.7388ZM26.3225 17.2998C26.495 16.7771 26.6372 16.3642 26.6393 16.3589C26.8505 15.671 27.0167 14.9967 27.1463 14.2597C27.4213 12.6998 26.4124 11.0742 25.0951 10.841C25.0335 10.8306 24.8338 10.9403 24.4992 11.3794C24.0497 11.9701 23.6796 12.8535 23.5426 13.624C23.482 13.969 23.4914 14.0474 23.8249 15.9899C23.872 16.2575 23.9106 16.498 23.9462 16.7395L23.9671 16.8838L26.3225 17.2998ZM25.459 8.78253C28.035 9.23625 29.6596 12.0485 29.2059 14.6224C28.7521 17.1974 27.9649 18.6506 27.784 19.6803L22.1208 18.6819L21.8783 17.0468C21.6357 15.4118 21.3033 14.291 21.4841 13.2623C21.8469 11.2028 23.3994 8.41975 25.459 8.78253Z" fill="#F3F4F6"/>
</g>
<defs>
<clipPath id="clip0_466_11">
<rect width="23" height="23" fill="white" transform="translate(7.5 7)"/>
</clipPath>
</defs>
</svg>
