<svg width="21" height="21" viewBox="0 0 21 21" fill="none" xmlns="http://www.w3.org/2000/svg">
<path d="M13.7233 18.1V16.4333C13.7233 15.5493 13.3721 14.7014 12.747 14.0763C12.1219 13.4512 11.274 13.1 10.39 13.1H5.38997C4.50592 13.1 3.65807 13.4512 3.03295 14.0763C2.40783 14.7014 2.05664 15.5493 2.05664 16.4333V18.1" stroke="#5D9D8A" stroke-width="1.66667" stroke-linecap="round" stroke-linejoin="round"/>
<path d="M7.88997 9.76664C9.73092 9.76664 11.2233 8.27426 11.2233 6.43331C11.2233 4.59236 9.73092 3.09998 7.88997 3.09998C6.04902 3.09998 4.55664 4.59236 4.55664 6.43331C4.55664 8.27426 6.04902 9.76664 7.88997 9.76664Z" stroke="#5D9D8A" stroke-width="1.66667" stroke-linecap="round" stroke-linejoin="round"/>
<path d="M18.7234 18.0999V16.4333C18.7228 15.6947 18.477 14.9772 18.0245 14.3935C17.572 13.8098 16.9385 13.3929 16.2234 13.2083" stroke="#5D9D8A" stroke-width="1.66667" stroke-linecap="round" stroke-linejoin="round"/>
<path d="M13.7234 3.20825C14.4404 3.39184 15.0759 3.80884 15.5298 4.39351C15.9836 4.97819 16.2299 5.69728 16.2299 6.43742C16.2299 7.17756 15.9836 7.89665 15.5298 8.48133C15.0759 9.066 14.4404 9.483 13.7234 9.66659" stroke="#5D9D8A" stroke-width="1.66667" stroke-linecap="round" stroke-linejoin="round"/>
</svg>
