<svg width="21" height="20" viewBox="0 0 21 20" fill="none" xmlns="http://www.w3.org/2000/svg">
<path d="M15.8 6.66669C17.1808 6.66669 18.3 5.5474 18.3 4.16669C18.3 2.78598 17.1808 1.66669 15.8 1.66669C14.4193 1.66669 13.3 2.78598 13.3 4.16669C13.3 5.5474 14.4193 6.66669 15.8 6.66669Z" stroke="#374151" stroke-width="1.66667" stroke-linecap="round" stroke-linejoin="round"/>
<path d="M5.80005 12.5C7.18076 12.5 8.30005 11.3807 8.30005 10C8.30005 8.61929 7.18076 7.5 5.80005 7.5C4.41934 7.5 3.30005 8.61929 3.30005 10C3.30005 11.3807 4.41934 12.5 5.80005 12.5Z" stroke="#374151" stroke-width="1.66667" stroke-linecap="round" stroke-linejoin="round"/>
<path d="M15.8 18.3333C17.1808 18.3333 18.3 17.214 18.3 15.8333C18.3 14.4526 17.1808 13.3333 15.8 13.3333C14.4193 13.3333 13.3 14.4526 13.3 15.8333C13.3 17.214 14.4193 18.3333 15.8 18.3333Z" stroke="#374151" stroke-width="1.66667" stroke-linecap="round" stroke-linejoin="round"/>
<path d="M7.95837 11.2584L13.65 14.575" stroke="#374151" stroke-width="1.66667" stroke-linecap="round" stroke-linejoin="round"/>
<path d="M13.6417 5.42499L7.95837 8.74165" stroke="#374151" stroke-width="1.66667" stroke-linecap="round" stroke-linejoin="round"/>
</svg>
