<svg width="18" height="18" viewBox="0 0 18 18" fill="none" xmlns="http://www.w3.org/2000/svg">
<g clip-path="url(#clip0_199_35)">
<path d="M9 10.125C10.5533 10.125 11.8125 8.8658 11.8125 7.3125C11.8125 5.7592 10.5533 4.5 9 4.5C7.4467 4.5 6.1875 5.7592 6.1875 7.3125C6.1875 8.8658 7.4467 10.125 9 10.125Z" stroke="#6B7280" stroke-width="1.5" stroke-linecap="round" stroke-linejoin="round"/>
<path d="M12.9375 15.75C12.9375 14.7057 12.5227 13.7042 11.7842 12.9658C11.0458 12.2273 10.0443 11.8125 9 11.8125C7.95571 11.8125 6.95419 12.2273 6.21577 12.9658C5.47734 13.7042 5.0625 14.7057 5.0625 15.75H12.9375Z" stroke="#6B7280" stroke-width="1.5" stroke-linecap="round" stroke-linejoin="round"/>
<path d="M13.5 7.875C13.9794 7.875 14.4509 7.75245 14.8696 7.519C15.2883 7.28554 15.6404 6.94893 15.8925 6.54112C16.1445 6.13331 16.2881 5.66784 16.3097 5.18892C16.3312 4.70999 16.23 4.23351 16.0156 3.80471C15.8012 3.37592 15.4807 3.00904 15.0847 2.73892C14.6886 2.46881 14.2301 2.30442 13.7526 2.26137C13.2751 2.21831 12.7946 2.29802 12.3566 2.49293C11.9186 2.68784 11.5376 2.99147 11.25 3.375" stroke="#6B7280" stroke-width="1.5" stroke-linecap="round" stroke-linejoin="round"/>
<path d="M14.0625 13.5H17.4375C17.4375 12.4557 17.0227 11.4542 16.2842 10.7158C15.5458 9.97734 14.5443 9.5625 13.5 9.5625" stroke="#6B7280" stroke-width="1.5" stroke-linecap="round" stroke-linejoin="round"/>
<path d="M6.75 3.375C6.46235 2.99147 6.08145 2.68784 5.64345 2.49293C5.20545 2.29802 4.72489 2.21831 4.24742 2.26137C3.76995 2.30442 3.31141 2.46881 2.91534 2.73892C2.51927 3.00904 2.19882 3.37592 1.98442 3.80471C1.77003 4.23351 1.66879 4.70999 1.69034 5.18892C1.71189 5.66784 1.8555 6.13331 2.10755 6.54112C2.35959 6.94893 2.71169 7.28554 3.13041 7.519C3.54914 7.75245 4.02059 7.875 4.5 7.875" stroke="#6B7280" stroke-width="1.5" stroke-linecap="round" stroke-linejoin="round"/>
<path d="M4.5 9.5625C3.45571 9.5625 2.45419 9.97734 1.71577 10.7158C0.977343 11.4542 0.5625 12.4557 0.5625 13.5H3.9375" stroke="#6B7280" stroke-width="1.5" stroke-linecap="round" stroke-linejoin="round"/>
</g>
<defs>
<clipPath id="clip0_199_35">
<rect width="18" height="18" fill="white"/>
</clipPath>
</defs>
</svg>
